<svg xmlns:xlink="http://www.w3.org/1999/xlink" xmlns="http://www.w3.org/2000/svg" viewBox="123.798 -25.148 51.501 9.669" width="150" height="50"><g data-paper-data="{&quot;isGlobalGroup&quot;:true,&quot;bounds&quot;:{&quot;x&quot;:65,&quot;y&quot;:195.57275734677094,&quot;width&quot;:420,&quot;height&quot;:78.85448530645814}}" fill="none" stroke-miterlimit="10" font-family="none" font-weight="none" font-size="none" text-anchor="none" style="mix-blend-mode:normal"><g data-paper-data="{&quot;isPrimaryText&quot;:true}" fill="#F8485E"><path d="M65.053 245.935h10.048a.052.052 0 0 0 .053-.053v-10.956h13.17c.321 0 .644-.009.96-.024l6.808 11.008a.052.052 0 0 0 .044.025h11.81c.018 0 .036-.01.045-.027a.053.053 0 0 0-.001-.053l-8.788-14.213a19.62 19.62 0 0 0 8.796-16.39c0-10.85-8.827-19.675-19.675-19.675h-23.27a.052.052 0 0 0-.053.052v50.253c0 .03.024.053.053.053zm28.76-22.905a9.412 9.412 0 0 1-5.49 1.743h-13.17V205.73h13.17c5.251 0 9.522 4.271 9.522 9.521a9.535 9.535 0 0 1-4.033 7.78z" data-paper-data="{&quot;glyphName&quot;:&quot;R&quot;,&quot;glyphIndex&quot;:0,&quot;firstGlyphOfWord&quot;:true,&quot;word&quot;:1}" style="" transform="translate(115.827 -49.13) scale(.12262)" fill="#FFFFFF"></path><path d="M119.865 229.004h10.895a.052.052 0 0 0 .05-.069l-5.448-16.93c-.014-.043-.086-.043-.1 0l-5.447 16.93a.052.052 0 0 0 .05.068zm14.128 9.947h-17.362a.052.052 0 0 0-.05.037l-2.214 6.877a.053.053 0 0 0 .008.047.05.05 0 0 0 .042.022h21.79a.052.052 0 0 0 .05-.069l-2.214-6.877a.052.052 0 0 0-.05-.037zm55.661-43.375H130.59a.052.052 0 0 0-.05.068l16.17 50.253c.001.003.006.002.006.004.009.018.023.032.044.033h10.051a.052.052 0 0 0 .052-.053v-20.049h22.745a.052.052 0 0 0 .052-.052v-10.05a.052.052 0 0 0-.052-.053h-22.745v-9.946h32.791a.052.052 0 0 0 .052-.052v-10.05a.052.052 0 0 0-.052-.053z" data-paper-data="{&quot;glyphName&quot;:&quot;\uF00E&quot;,&quot;glyphIndex&quot;:1,&quot;word&quot;:1}" style="" transform="translate(115.827 -49.13) scale(.12262)" fill="#FFFFFF"></path><path d="M183.904 245.935h10.551a.052.052 0 0 0 .05-.037l2.202-6.842h17.286l2.202 6.842a.052.052 0 0 0 .05.037h10.551a.053.053 0 0 0 .05-.069l-16.17-50.253a.052.052 0 0 0-.05-.036h-10.551a.052.052 0 0 0-.05.036l-16.171 50.253a.052.052 0 0 0 .05.069zm16.071-17.036 5.375-16.705 5.375 16.705z" data-paper-data="{&quot;glyphName&quot;:&quot;A&quot;,&quot;glyphIndex&quot;:2,&quot;word&quot;:1}" style="" transform="translate(115.827 -49.13) scale(.12262)" fill="#FFFFFF"></path><path d="M260.616 215.68h-30.15a.052.052 0 0 0-.053.053v10.046c0 .03.024.053.053.053h30.15a.052.052 0 0 0 .052-.053v-10.046a.052.052 0 0 0-.052-.053z" data-paper-data="{&quot;glyphName&quot;:&quot;-&quot;,&quot;glyphIndex&quot;:3,&quot;word&quot;:1}" style="" transform="translate(115.827 -49.13) scale(.12262)" fill="#FFFFFF"></path><path d="M289.434 245.922c6.448 0 12.896-2.455 17.804-7.363a.053.053 0 0 0 0-.075l-7.106-7.107a.055.055 0 0 0-.075 0c-5.857 5.858-15.389 5.858-21.246 0a14.923 14.923 0 0 1-4.4-10.623c0-4.013 1.563-7.785 4.4-10.623 5.857-5.858 15.389-5.858 21.246 0 .02.02.055.02.075 0l7.106-7.107a.053.053 0 0 0 0-.074c-9.817-9.818-25.79-9.818-35.608 0-4.756 4.755-7.375 11.078-7.375 17.804 0 6.726 2.62 13.049 7.375 17.804 4.909 4.91 11.356 7.364 17.804 7.364z" data-paper-data="{&quot;glyphName&quot;:&quot;C&quot;,&quot;glyphIndex&quot;:4,&quot;word&quot;:1}" style="" transform="translate(115.827 -49.13) scale(.12262)" fill="#FFFFFF"></path><path d="M315.527 229h10.895a.052.052 0 0 0 .05-.068l-5.448-16.93c-.014-.043-.086-.043-.1 0l-5.447 16.93a.052.052 0 0 0 .05.068zm14.128 9.948h-17.362a.052.052 0 0 0-.05.037l-2.214 6.877a.052.052 0 0 0 .05.068h21.79a.052.052 0 0 0 .05-.068l-2.214-6.877a.052.052 0 0 0-.05-.037zm46.917-7.31a19.62 19.62 0 0 0 8.796-16.39c0-10.85-8.826-19.675-19.675-19.675h-39.441a.052.052 0 0 0-.05.068l16.17 50.253c.002.003.006.002.007.004.008.018.023.032.044.032h10.048a.052.052 0 0 0 .052-.052v-10.956h13.17c.322 0 .645-.009.962-.024l6.807 11.008c.01.015.026.025.044.025h11.81a.05.05 0 0 0 .045-.027.053.053 0 0 0 0-.053zm-5.39-8.612a9.413 9.413 0 0 1-5.489 1.743h-13.17v-19.043h13.17c5.25 0 9.522 4.271 9.522 9.521a9.534 9.534 0 0 1-4.033 7.779z" data-paper-data="{&quot;glyphName&quot;:&quot;\uF018&quot;,&quot;glyphIndex&quot;:5,&quot;word&quot;:1}" style="" transform="translate(115.827 -49.13) scale(.12262)" fill="#FFFFFF"></path><path d="M469.92 245.828c-13.828 0-25.077-11.247-25.077-25.072v-25.128a.052.052 0 0 0-.052-.053h-11.814a.052.052 0 0 0-.044.026l-14.646 23.685-14.646-23.685a.052.052 0 0 0-.045-.026h-11.813a.052.052 0 0 0-.053.053v50.253c0 .029.024.052.053.052h10.043a.052.052 0 0 0 .053-.052v-33.83l16.363 26.46c.02.031.07.031.09 0l16.358-26.452v33.822c0 .029.024.052.053.052h35.176a.052.052 0 0 0 0-.105zm2.416-10.193c8.22-1.333 13.8-9.078 12.467-17.297-1.334-8.219-9.078-13.8-17.297-12.466-8.22 1.334-13.8 9.078-12.467 17.297 1.334 8.219 9.078 13.8 17.297 12.466z" data-paper-data="{&quot;glyphName&quot;:&quot;\uF112&quot;,&quot;glyphIndex&quot;:6,&quot;lastGlyphOfWord&quot;:true,&quot;word&quot;:1}" style="" transform="translate(115.827 -49.13) scale(.12262)" fill="#FFFFFF"></path></g></g></svg>